<svg width="1200" height="630" viewBox="0 0 1200 630" xmlns="http://www.w3.org/2000/svg"><mask id="satori_om-id"><rect x="0" y="0" width="1200" height="630" fill="#fff"/></mask><rect x="0" y="0" width="1200" height="630" fill="#ffffff"/><mask id="satori_ms-id-0-0" maskUnits="userSpaceOnUse"><rect x="0" y="0" width="1200" height="630" fill="#fff"/><path x="482" y="147" width="236" height="336" fill="#000"  stroke-width="0" d="M506,147 h188 a24,24 0 0 1 24,24 v288 a24,24 0 0 1 -24,24 h-188 a24,24 0 0 1 -24,-24 v-288 a24,24 0 0 1 24,-24"/></mask><defs><filter id="satori_s-id-0-0" x="-264.8305084745763%" y="-186.01190476190476%" width="629.6610169491526%" height="472.0238095238095%"><feGaussianBlur stdDeviation="25" result="b"/><feFlood flood-color="rgba(0,0,0,0.1)" in="SourceGraphic" result="f"/><feComposite in="f" in2="b" operator="in"/></filter></defs><g mask="url(#satori_ms-id-0-0)" filter="url(#satori_s-id-0-0)" opacity="1"><path x="482" y="172" width="236" height="336" fill="#fff" stroke="#fff" stroke-width="0" d="M506,172 h188 a24,24 0 0 1 24,24 v288 a24,24 0 0 1 -24,24 h-188 a24,24 0 0 1 -24,-24 v-288 a24,24 0 0 1 24,-24"/></g><mask id="satori_om-id-0"><rect x="482" y="147" width="236" height="336" fill="#fff"/></mask><path x="482" y="147" width="236" height="336" fill="#f9fafb" d="M506,147 h188 a24,24 0 0 1 24,24 v288 a24,24 0 0 1 -24,24 h-188 a24,24 0 0 1 -24,-24 v-288 a24,24 0 0 1 24,-24"/><mask id="satori_om-id-0-0"><rect x="560" y="207" width="80" height="80" fill="#fff"/></mask><path x="560" y="207" width="80" height="80" fill="#2563eb" d="M576,207 h48 a16,16 0 0 1 16,16 v48 a16,16 0 0 1 -16,16 h-48 a16,16 0 0 1 -16,-16 v-48 a16,16 0 0 1 16,-16"/><mask id="satori_om-id-0-0-0"><rect x="584" y="228" width="32" height="39" fill="#fff"/></mask><image href="https://cdnjs.cloudflare.com/ajax/libs/twemoji/14.0.2/svg/1f31f.svg" x="584" y="228" width="32" height="38.71875"/><mask id="satori_om-id-0-1"><rect x="542" y="319" width="116" height="58" fill="#fff"/></mask><g  ><path fill="#1a1a1a" d="M550.7 365L546.2 365L546.2 330.1L550.7 330.1L550.7 345.2L569 345.2L569 330.1L573.5 330.1L573.5 365L569 365L569 349.1L550.7 349.1L550.7 365ZM592.4 365.6L592.4 365.6Q588.6 365.6 585.8 363.9Q583.1 362.2 581.6 359.2Q580.1 356.1 580.1 352.1Q580.1 348.1 581.6 345.0Q583.0 341.9 585.7 340.2Q588.3 338.5 591.9 338.5L591.9 338.5Q594.0 338.5 596.0 339.2Q598.0 339.9 599.7 341.4Q601.3 342.9 602.3 345.4Q603.3 347.9 603.3 351.6L603.3 351.6L603.3 353.3L584.4 353.3Q584.5 355.9 585.4 357.7L585.4 357.7Q586.4 359.7 588.2 360.8Q590.0 361.8 592.4 361.8L592.4 361.8Q594.0 361.8 595.2 361.4Q596.5 360.9 597.4 360.0Q598.3 359.1 598.8 357.8L598.8 357.8L602.9 358.9Q602.3 360.9 600.8 362.4Q599.4 363.9 597.2 364.7Q595.1 365.6 592.4 365.6ZM584.4 349.8L584.4 349.8L599.0 349.8Q598.9 348.0 598.3 346.5L598.3 346.5Q597.5 344.5 595.9 343.4Q594.3 342.2 591.9 342.2Q589.5 342.2 587.8 343.4Q586.2 344.5 585.3 346.4L585.3 346.4Q584.5 348.0 584.4 349.8ZM609.4 330.1L613.6 330.1L613.6 365L609.4 365L609.4 330.1ZM621.0 330.1L625.2 330.1L625.2 365L621.0 365L621.0 330.1ZM643.3 365.6L643.3 365.6Q639.7 365.6 637.0 363.9Q634.3 362.2 632.8 359.1Q631.3 356.1 631.3 352.1L631.3 352.1Q631.3 348.0 632.8 344.9Q634.3 341.8 637.0 340.2Q639.7 338.5 643.3 338.5L643.3 338.5Q646.9 338.5 649.6 340.2Q652.3 341.8 653.8 344.9Q655.3 348.0 655.3 352.1L655.3 352.1Q655.3 356.1 653.8 359.1Q652.3 362.2 649.6 363.9Q646.9 365.6 643.3 365.6ZM643.3 361.8L643.3 361.8Q645.9 361.8 647.6 360.4Q649.3 359.1 650.2 356.9Q651.0 354.6 651.0 352.1L651.0 352.1Q651.0 349.5 650.2 347.2Q649.3 345.0 647.6 343.6Q645.9 342.2 643.3 342.2L643.3 342.2Q640.6 342.2 639.0 343.6Q637.3 345.0 636.5 347.2Q635.6 349.4 635.6 352.1L635.6 352.1Q635.6 354.6 636.5 356.9Q637.3 359.1 639.0 360.4Q640.6 361.8 643.3 361.8Z "/></g><mask id="satori_om-id-0-2"><rect x="572" y="393" width="57" height="30" fill="#fff"/></mask><g opacity="0.7"></g><g  ><path fill="#1a1a1a" d="M578.6 415L576.5 415L572.5 400.4L574.4 400.4L576.7 409.4Q576.9 410.1 577.1 410.8Q577.2 411.6 577.4 412.3L577.4 412.3Q577.5 412.8 577.6 413.3L577.6 413.3Q577.7 412.8 577.8 412.3L577.8 412.3Q577.9 411.6 578.1 410.8Q578.3 410.1 578.4 409.4L578.4 409.4L580.8 400.4L582.9 400.4L585.2 409.4Q585.4 410.1 585.6 410.8Q585.8 411.6 585.9 412.3L585.9 412.3Q586.0 412.8 586.1 413.2L586.1 413.2Q586.2 412.8 586.3 412.3L586.3 412.3Q586.5 411.6 586.6 410.8Q586.8 410.1 587.0 409.4L587.0 409.4L589.3 400.4L591.2 400.4L587.2 415L585.1 415L582.6 405.8Q582.3 404.9 582.1 403.8L582.1 403.8Q582.0 403.2 581.8 402.5L581.8 402.5Q581.7 403.2 581.6 403.7L581.6 403.7Q581.4 404.7 581.1 405.8L581.1 405.8L578.6 415ZM597.7 415.2L597.7 415.2Q596.2 415.2 595.1 414.5Q594.0 413.8 593.3 412.6Q592.7 411.3 592.7 409.6L592.7 409.6Q592.7 407.9 593.3 406.6Q594.0 405.4 595.1 404.6Q596.2 403.9 597.7 403.9L597.7 403.9Q599.2 403.9 600.3 404.6Q601.4 405.4 602.1 406.6Q602.7 407.9 602.7 409.6L602.7 409.6Q602.7 411.3 602.1 412.6Q601.4 413.8 600.3 414.5Q599.2 415.2 597.7 415.2ZM597.7 413.7L597.7 413.7Q598.8 413.7 599.5 413.1Q600.2 412.5 600.6 411.6Q600.9 410.7 600.9 409.6L600.9 409.6Q600.9 408.5 600.6 407.6Q600.2 406.7 599.5 406.1Q598.8 405.5 597.7 405.5L597.7 405.5Q596.6 405.5 595.9 406.1Q595.2 406.7 594.9 407.6Q594.5 408.5 594.5 409.6L594.5 409.6Q594.5 410.7 594.9 411.6Q595.2 412.5 595.9 413.1Q596.6 413.7 597.7 413.7ZM607 415L605.2 415L605.2 404.1L606.9 404.1L606.9 405.8L607.1 405.8Q607.4 404.9 608.1 404.4Q608.9 403.9 609.9 403.9L609.9 403.9Q610.1 403.9 610.4 403.9Q610.6 403.9 610.8 404.0L610.8 404.0L610.8 405.7Q610.7 405.7 610.4 405.7Q610.1 405.6 609.7 405.6L609.7 405.6Q608.9 405.6 608.3 406.0Q607.7 406.3 607.4 406.9Q607 407.4 607 408.2L607 408.2L607 415ZM612.8 400.4L614.5 400.4L614.5 415L612.8 415L612.8 400.4ZM621.7 415.2L621.7 415.2Q620.3 415.2 619.3 414.5Q618.3 413.8 617.7 412.6Q617.1 411.3 617.1 409.6L617.1 409.6Q617.1 407.8 617.7 406.6Q618.3 405.3 619.3 404.6Q620.4 403.9 621.7 403.9L621.7 403.9Q622.8 403.9 623.4 404.3Q624.0 404.6 624.4 405.1Q624.7 405.5 624.9 405.8L624.9 405.8L625.0 405.8L625.0 400.4L626.8 400.4L626.8 415L625.1 415L625.1 413.3L624.9 413.3Q624.7 413.6 624.4 414.1Q624.0 414.5 623.4 414.9Q622.8 415.2 621.7 415.2ZM622.0 413.7L622.0 413.7Q623.0 413.7 623.7 413.1Q624.3 412.6 624.7 411.7Q625.0 410.8 625.0 409.6L625.0 409.6Q625.0 408.3 624.7 407.4Q624.3 406.5 623.7 406.0Q623.0 405.5 622.0 405.5L622.0 405.5Q620.9 405.5 620.2 406.1Q619.6 406.6 619.2 407.5Q618.9 408.4 618.9 409.6L618.9 409.6Q618.9 410.7 619.2 411.6Q619.6 412.6 620.3 413.1Q621.0 413.7 622.0 413.7Z " opacity="0.7"/></g></svg>